<svg xmlns="http://www.w3.org/2000/svg" viewBox="-18 -18 582 609" role="img" aria-labelledby="title">
  <title id="title">TAYHVN TH monogram</title>
  <defs>
    <linearGradient id="gold" x1="0" y1="0" x2="1" y2="1">
      <stop offset="0%" stop-color="#fff0b2"/>
      <stop offset="18%" stop-color="#e7bf68"/>
      <stop offset="45%" stop-color="#b77d22"/>
      <stop offset="67%" stop-color="#f2ce75"/>
      <stop offset="100%" stop-color="#875713"/>
    </linearGradient>
    <linearGradient id="edge" x1="0" y1="0" x2="0" y2="1">
      <stop offset="0%" stop-color="#fff4bf"/>
      <stop offset="55%" stop-color="#d7a746"/>
      <stop offset="100%" stop-color="#70420b"/>
    </linearGradient>
    <filter id="shadow" x="-30%" y="-30%" width="160%" height="160%">
      <feDropShadow dx="0" dy="10" stdDeviation="10" flood-color="#b9852c" flood-opacity=".22"/>
    </filter>
  </defs>
  <g filter="url(#shadow)" fill="url(#gold)" stroke="url(#edge)" stroke-width="3" stroke-linejoin="miter">
    <path d="M 92 128 L 91 443 L 145 481 L 149 481 L 149 342 L 218 341 L 219 338 L 149 292 L 149 129 Z"/>
    <path d="M 0 1 L 47 54 L 239 56 L 240 572 L 299 535 L 301 302 L 387 303 L 388 481 L 447 443 L 447 129 L 387 129 L 387 243 L 384 246 L 302 246 L 299 244 L 299 57 L 302 54 L 496 54 L 545 3 L 545 0 Z"/>
  </g>
  <g fill="none" stroke="#fff2bd" stroke-opacity=".58" stroke-width="2">
    <path d="M 8 8 L 48 48 L 238 50"/>
    <path d="M 304 50 L 495 50 L 536 8"/>
    <path d="M 97 136 L 97 437"/>
  </g>
</svg>
